<svg width="159" height="159" viewBox="0 0 159 159" fill="none" xmlns="http://www.w3.org/2000/svg">
<circle cx="79.5001" cy="79.5" r="79.5" fill="url(#paint0_linear_7_57)"/>
<path fill-rule="evenodd" clip-rule="evenodd" d="M112.115 44.1384C106.859 38.0461 99.6753 35 90.5642 35H38.0001V49.6915C42.8747 47.4641 48.4953 46.3503 54.8618 46.3503C63.7561 46.3503 70.1722 48.2321 74.1102 51.9956C78.116 55.6907 80.1189 60.378 80.1189 66.0575C80.1189 69.4104 79.406 72.1475 77.9802 74.2688C76.5544 76.39 74.0083 79.1271 70.342 82.4801C68.9841 83.7118 67.8638 84.8066 66.9812 85.7646C66.1664 86.6542 65.2838 88.0227 64.3332 89.8703C63.4506 91.7178 63.0093 93.6338 63.0093 95.6182H46.7144C46.7144 88.9123 48.4797 83.7118 52.0102 80.0167C52.7571 79.264 53.7755 78.2718 55.0655 77.0401C56.3555 75.8084 57.2382 74.9531 57.7135 74.4741C58.1887 73.9266 58.63 73.2766 59.0374 72.5239C59.5127 71.7027 59.7503 70.9158 59.7503 70.1631C59.7503 65.989 56.729 63.902 50.6863 63.902C45.4279 63.902 41.1992 65.3975 38.0001 68.3886V124H71.6411V98.5714H90.5642C99.5877 98.5714 106.728 95.5253 111.984 89.433C117.328 83.3408 120 75.7917 120 66.7857C120 57.7798 117.372 50.2307 112.115 44.1384ZM54.8618 98.9027C52.146 98.9027 49.8376 99.8607 47.9365 101.777C46.0355 103.693 45.0849 106.019 45.0849 108.756C45.0849 111.493 46.0355 113.82 47.9365 115.736C49.8376 117.652 52.146 118.61 54.8618 118.61C57.5777 118.61 59.8861 117.652 61.7872 115.736C63.6882 113.82 64.6388 111.493 64.6388 108.756C64.6388 106.019 63.6882 103.693 61.7872 101.777C59.8861 99.8607 57.5777 98.9027 54.8618 98.9027Z" fill="url(#paint1_linear_7_57)"/>
<defs>
<linearGradient id="paint0_linear_7_57" x1="79.5001" y1="0" x2="79.5001" y2="159" gradientUnits="userSpaceOnUse">
<stop stop-color="#00EFFF"/>
<stop offset="1" stop-color="#26106F" stop-opacity="0"/>
</linearGradient>
<linearGradient id="paint1_linear_7_57" x1="79.0001" y1="35" x2="79.0001" y2="124" gradientUnits="userSpaceOnUse">
<stop stop-color="white"/>
<stop offset="1" stop-color="white"/>
</linearGradient>
</defs>
</svg>
